<?xml version="1.0" standalone="no"?>
<!DOCTYPE svg PUBLIC "-//W3C//DTD SVG 20010904//EN"
 "http://www.w3.org/TR/2001/REC-SVG-20010904/DTD/svg10.dtd">
<svg version="1.0" xmlns="http://www.w3.org/2000/svg"
 width="50.000000pt" height="50.000000pt" viewBox="0 0 50.000000 50.000000"
 preserveAspectRatio="xMidYMid meet">

<g transform="translate(0.000000,50.000000) scale(0.100000,-0.100000)"
fill="#000000" stroke="none">
<path d="M156 401 c-49 -20 -86 -47 -86 -63 0 -5 19 -32 42 -59 l41 -49 98 0
97 0 43 51 c50 60 47 71 -26 108 -63 33 -144 38 -209 12z m201 -32 c24 -11 43
-25 43 -30 0 -6 -14 -28 -32 -50 -23 -29 -39 -39 -60 -39 -29 0 -31 8 -12 68
7 24 -5 11 -27 -28 -21 -37 -26 -40 -64 -40 -36 0 -46 5 -73 39 -18 22 -32 44
-32 50 0 12 52 41 95 52 43 11 113 2 162 -22z"/>
</g>
</svg>
