<?xml version="1.0" standalone="no"?>
<!DOCTYPE svg PUBLIC "-//W3C//DTD SVG 20010904//EN"
 "http://www.w3.org/TR/2001/REC-SVG-20010904/DTD/svg10.dtd">
<svg version="1.0" xmlns="http://www.w3.org/2000/svg"
 width="50.000000pt" height="50.000000pt" viewBox="0 0 50.000000 50.000000"
 preserveAspectRatio="xMidYMid meet">

<g transform="translate(0.000000,50.000000) scale(0.100000,-0.100000)"
fill="#000000" stroke="none">
<path d="M62 240 c7 -103 82 -170 188 -170 106 0 181 67 188 170 l4 61 -43 -8
c-24 -4 -91 -8 -149 -8 -58 0 -125 4 -149 8 l-43 8 4 -61z m188 25 c30 0 83 4
118 8 l63 8 -3 -27 c-4 -37 -34 -44 -178 -44 -144 0 -174 7 -178 44 l-3 27 63
-8 c35 -4 88 -8 118 -8z m87 -160 c-43 -27 -131 -27 -174 0 l-32 20 119 0 119
0 -32 -20z"/>
</g>
</svg>
