<?xml version="1.0" standalone="no"?>
<!DOCTYPE svg PUBLIC "-//W3C//DTD SVG 20010904//EN"
 "http://www.w3.org/TR/2001/REC-SVG-20010904/DTD/svg10.dtd">
<svg version="1.0" xmlns="http://www.w3.org/2000/svg"
 width="50.000000pt" height="50.000000pt" viewBox="0 0 50.000000 50.000000"
 preserveAspectRatio="xMidYMid meet">

<g transform="translate(0.000000,50.000000) scale(0.100000,-0.100000)"
fill="#000000" stroke="none">
<path d="M202 404 c-29 -20 -42 -54 -30 -76 13 -26 143 -26 156 0 20 37 -27
92 -78 92 -14 0 -36 -7 -48 -16z m86 -20 c32 -22 29 -54 -4 -54 -23 0 -25 2
-14 15 7 9 9 19 5 23 -4 4 -14 -3 -22 -15 -20 -29 -63 -31 -63 -4 0 22 35 51
60 51 9 0 26 -7 38 -16z"/>
</g>
</svg>
